<?xml version="1.0" standalone="no"?>
<!DOCTYPE svg PUBLIC "-//W3C//DTD SVG 20010904//EN"
 "http://www.w3.org/TR/2001/REC-SVG-20010904/DTD/svg10.dtd">
<svg version="1.0" xmlns="http://www.w3.org/2000/svg"
 width="639.000000pt" height="639.000000pt" viewBox="0 0 639.000000 639.000000"
 preserveAspectRatio="xMidYMid meet">
<metadata>
Created by potrace 1.16, written by Peter Selinger 2001-2019
</metadata>
<g transform="translate(0.000000,639.000000) scale(0.083203,-0.065876)"
fill="#000000" stroke="none">
<path d="M5039 6134 c-5 -6 -55 -15 -112 -20 l-102 -8 75 -9 c41 -6 76 -10 77
-11 1 -1 4 -15 8 -31 5 -23 4 -27 -5 -15 -8 11 -9 -9 -4 -80 4 -52 7 -102 7
-110 0 -8 10 -22 21 -31 12 -10 18 -21 14 -25 -4 -3 -119 -17 -255 -29 -337
-31 -503 -61 -503 -90 0 -18 -17 -20 -22 -3 -3 9 -14 10 -43 3 -45 -12 -60
-35 -20 -30 17 1 35 -6 50 -21 26 -26 46 -24 82 9 13 11 26 17 30 14 3 -4 0
-7 -7 -7 -7 0 -10 -3 -7 -7 4 -3 15 1 25 10 33 30 457 89 622 86 75 -1 28 -17
-55 -18 -106 -2 -316 -24 -303 -33 7 -4 9 -8 3 -8 -5 0 -27 -5 -49 -9 -38 -9
-39 2 -1 13 11 3 -7 3 -40 0 -33 -3 -76 -10 -95 -15 -33 -8 -32 -8 10 -4 l45
5 -29 -16 c-15 -9 -37 -14 -47 -11 -11 3 -17 2 -14 -3 2 -4 -17 -10 -43 -14
-27 -3 -57 -12 -67 -20 -18 -13 -16 -15 22 -26 31 -10 56 -10 95 -3 48 9 49
11 18 12 -19 1 -44 7 -55 12 -15 7 -7 8 28 5 32 -2 59 2 82 14 46 24 478 63
445 41 -11 -8 -4 -11 30 -12 25 -1 -22 -7 -105 -15 -82 -7 -188 -18 -235 -23
l-85 -10 105 5 c395 18 387 18 395 -6 4 -12 4 -24 1 -27 -3 -4 -48 -9 -100
-13 -52 -4 -100 -11 -107 -16 -7 -4 -26 -7 -41 -6 -15 1 -28 -2 -28 -8 0 -7
46 -10 131 -9 100 1 134 -2 141 -13 5 -7 7 -52 5 -100 -5 -105 -17 -128 -142
-273 -88 -102 -133 -173 -219 -347 -27 -53 -62 -109 -77 -124 -29 -28 -30 -28
-215 -35 -251 -10 -447 -28 -492 -43 l-37 -13 -1 -147 -1 -146 26 -1 c23 -2
24 -2 4 -6 -20 -4 -23 -11 -23 -51 0 -26 -2 -132 -3 -237 -2 -104 0 -176 3
-160 4 18 9 -18 13 -89 5 -65 5 -121 2 -124 -3 -3 -5 15 -6 39 0 24 -4 67 -8
94 -13 85 0 -327 14 -455 1 -8 2 -31 3 -50 2 -35 2 -35 15 -10 17 33 53 37 83
9 13 -12 38 -59 55 -103 28 -71 32 -94 32 -181 1 -109 -24 -208 -65 -260 -21
-26 -21 -28 -4 -82 l18 -55 26 41 c51 80 122 90 195 30 78 -64 117 -162 117
-289 0 -86 -17 -153 -50 -200 l-22 -32 33 -35 c68 -70 245 -194 354 -247 234
-114 457 -166 755 -173 560 -15 1027 165 1340 515 41 46 80 90 87 97 30 31
156 268 187 350 103 272 147 496 163 822 4 81 8 111 17 106 7 -4 7 -1 -1 7
-13 14 -7 127 7 143 4 4 4 26 0 47 -4 22 -5 51 -2 65 2 15 0 25 -7 25 -7 0
-11 -25 -12 -67 0 -63 -15 -177 -18 -143 0 9 3 85 8 170 6 85 13 228 16 317
l6 161 -58 8 c-32 4 -105 11 -163 15 -98 7 -96 7 33 3 196 -6 195 -6 200 -63
2 -25 4 43 5 151 l2 197 -52 10 c-88 17 -562 51 -720 51 -33 0 -86 61 -137
158 l-52 99 -39 -11 c-38 -10 -46 -9 -129 15 -24 7 -80 63 -90 91 -7 19 -5 40
7 77 15 48 18 51 49 51 18 0 33 3 33 8 0 4 -23 34 -51 67 -77 93 -89 125 -89
239 0 58 4 95 9 91 6 -3 28 -2 51 1 28 5 37 10 28 15 -8 5 22 9 73 9 47 0 89
-3 93 -7 9 -9 116 -11 116 -2 0 7 -84 16 -252 25 l-118 7 0 93 0 93 28 -2 c15
-1 29 -5 32 -8 3 -4 29 1 58 10 56 18 59 31 7 31 -18 0 -53 3 -79 6 l-46 7 0
113 c0 110 -1 114 -23 119 -13 4 -97 5 -188 3 l-164 -3 -3 -52 c-2 -38 -7 -53
-18 -53 -9 0 -14 11 -14 34 0 48 -16 53 -30 11 -15 -47 -34 -44 -50 8 l-14 42
-9 -47 c-6 -32 -14 -48 -24 -48 -13 0 -14 10 -8 56 6 54 6 56 -17 54 -13 -1
-98 -2 -190 -1 l-168 1 0 35 0 35 148 1 c81 0 173 0 205 -1 55 -1 57 0 57 24
l0 25 -196 -2 c-132 -1 -199 -5 -205 -13z m428 -706 l20 -52 17 52 c13 39 23
52 37 52 13 0 19 -7 19 -24 0 -12 3 -51 6 -85 6 -52 5 -61 -10 -61 -11 0 -16
9 -17 28 0 15 -4 36 -8 46 -6 16 -10 11 -19 -27 -16 -60 -37 -62 -52 -4 -6 23
-12 47 -14 52 -1 6 -6 -14 -10 -42 -5 -39 -11 -53 -23 -53 -13 0 -14 7 -9 38
3 20 6 58 6 85 0 39 3 47 19 47 13 0 24 -15 38 -52z m240 -401 c104 -36 158
-70 244 -156 88 -88 136 -166 176 -283 25 -75 28 -96 28 -213 -1 -119 -3 -137
-31 -215 -69 -195 -204 -330 -406 -406 -66 -25 -86 -28 -213 -28 -121 -1 -150
2 -210 22 -193 64 -343 208 -411 397 -94 258 -17 564 189 750 72 66 194 129
287 150 97 22 255 14 347 -18z m-779 -1631 c87 -48 81 -190 -10 -246 -120 -73
-246 60 -180 190 30 60 130 90 190 56z m440 -8 c3 -15 -5 -18 -52 -18 l-56 0
0 -40 0 -40 50 0 c38 0 50 -4 50 -15 0 -11 -12 -15 -50 -15 l-50 0 0 -51 0
-51 53 4 c41 2 52 0 52 -12 0 -12 -16 -16 -71 -18 l-70 -3 0 135 1 135 40 4
c73 7 100 3 103 -15z m271 4 c38 -20 71 -73 71 -112 0 -14 -9 -44 -20 -67 -64
-141 -284 -105 -284 46 0 25 8 61 17 78 34 65 145 93 216 55z m373 6 c22 -6
51 -25 65 -42 22 -26 25 -37 21 -88 -7 -94 -66 -142 -169 -136 l-54 3 -3 138
-3 137 52 0 c28 0 69 -5 91 -12z m278 -8 c0 -17 -7 -20 -50 -20 l-50 0 0 -41
0 -41 45 6 c41 7 45 5 45 -13 0 -18 -6 -21 -46 -21 l-45 0 3 -47 3 -48 45 0
c33 0 45 -4 45 -15 0 -12 -15 -16 -67 -18 l-68 -3 0 141 0 140 70 0 c63 0 70
-2 70 -20z m-1352 -306 c16 -5 22 -13 20 -28 -3 -19 -9 -21 -73 -21 -84 0
-128 -22 -156 -77 -40 -78 -10 -191 61 -230 33 -18 71 -20 145 -7 14 3 21 -2
23 -18 5 -31 -30 -46 -97 -41 -73 5 -128 34 -166 87 -24 34 -30 54 -33 109 -3
56 0 74 20 112 47 87 163 138 256 114z m393 -10 c112 -33 169 -140 135 -256
-56 -195 -330 -229 -424 -53 -21 40 -21 160 0 200 29 53 80 93 138 109 72 19
86 19 151 0z m519 1 c6 -8 9 -23 6 -33 -6 -17 -15 -19 -79 -15 -62 3 -78 1
-111 -19 -61 -36 -81 -70 -81 -137 0 -44 5 -65 24 -93 42 -61 122 -88 191 -64
33 11 41 11 51 0 16 -19 4 -42 -28 -55 -40 -15 -142 -5 -188 19 -156 80 -152
291 7 373 73 38 186 51 208 24z m387 0 c50 -21 72 -42 94 -90 40 -87 19 -197
-50 -266 -72 -73 -156 -88 -248 -45 -68 32 -103 84 -110 164 -11 118 48 210
155 242 45 14 120 11 159 -5z m-762 -600 c160 0 404 4 543 8 247 8 252 7 252
-12 0 -11 -4 -23 -10 -26 -15 -9 -12 -52 5 -84 8 -16 11 -31 8 -35 -8 -8
-1368 -8 -1466 0 l-75 7 16 34 c15 32 15 38 0 79 l-15 44 226 -8 c124 -4 357
-7 516 -7z"/>
<path d="M5739 4211 c-37 -38 -39 -82 -4 -116 51 -52 140 -19 152 57 12 80
-87 120 -148 59z m114 -13 c34 -40 11 -100 -45 -114 -57 -13 -104 80 -60 118
36 32 74 31 105 -4z"/>
<path d="M4793 3365 c-45 -32 -51 -125 -12 -174 29 -36 97 -41 133 -10 46 40
54 119 17 168 -24 31 -105 41 -138 16z"/>
<path d="M5498 3365 c-37 -20 -48 -44 -48 -100 0 -38 5 -52 29 -76 24 -24 38
-29 76 -29 38 0 52 5 76 29 24 25 29 38 29 80 0 68 -28 101 -90 107 -29 3 -55
-1 -72 -11z"/>
<path d="M5912 3268 l3 -103 44 1 c37 1 49 7 73 33 63 71 19 171 -77 171 l-46
0 3 -102z"/>
<path d="M5175 3026 c-111 -48 -127 -226 -27 -301 21 -15 43 -20 94 -20 72 0
102 14 142 68 28 38 33 140 9 187 -34 66 -143 99 -218 66z"/>
<path d="M6074 3026 c-128 -56 -118 -280 15 -316 109 -29 201 49 201 170 0
123 -105 194 -216 146z"/>
<path d="M5530 6139 c0 -5 -12 -9 -27 -10 -19 0 -13 -4 22 -12 62 -15 402 -14
417 1 26 26 -8 31 -207 31 -118 0 -205 -5 -205 -10z"/>
<path d="M4535 6070 c-148 -24 -185 -35 -285 -82 -93 -45 -107 -57 -104 -96 1
-15 2 -67 3 -116 l1 -88 33 5 c41 6 244 56 279 69 l27 10 3 129 3 129 -30 1
c-16 1 18 10 77 20 59 10 115 22 125 28 17 10 17 10 -2 9 -11 0 -69 -8 -130
-18z"/>
<path d="M6619 6002 c-3 -55 3 -156 11 -175 13 -30 41 -61 65 -72 53 -22 151
-43 160 -34 13 13 25 209 15 229 -8 16 -101 50 -134 50 -9 0 -15 3 -13 8 3 4
-19 8 -49 9 -45 2 -54 0 -55 -15z"/>
<path d="M1415 4331 c-56 -6 -58 -7 -26 -13 18 -5 57 -9 85 -10 l51 -1 -44 -6
-44 -6 2 -100 c2 -71 7 -107 19 -127 9 -15 20 -28 24 -28 4 0 8 -9 8 -19 0
-22 -18 -25 -230 -41 -298 -22 -414 -40 -350 -54 103 -21 198 -26 360 -16 215
12 220 12 220 1 0 -10 -99 -21 -190 -20 -35 0 -62 -2 -59 -6 4 -3 51 -6 105
-6 65 0 101 -4 106 -12 6 -9 8 -9 8 1 0 6 5 12 10 12 7 0 7 -6 0 -20 -8 -15
-21 -20 -58 -21 -26 0 -69 -4 -97 -9 -44 -7 -39 -8 37 -6 68 1 84 -2 76 -11
-6 -8 -33 -13 -64 -13 -30 0 -54 -4 -54 -9 0 -5 -12 -12 -26 -15 -36 -9 -26
-15 30 -20 25 -2 49 -5 51 -8 3 -2 -8 -18 -23 -34 -16 -16 -38 -46 -51 -66
-14 -24 -31 -38 -44 -39 -16 -1 -17 -3 -5 -6 14 -4 12 -15 -18 -101 -18 -53
-39 -102 -46 -108 -7 -7 -71 -20 -143 -29 -71 -8 -179 -28 -240 -42 -135 -33
-123 -30 -137 -32 -8 -1 -9 -50 -5 -188 6 -185 23 -305 64 -455 16 -56 25 -68
38 -48 3 6 21 10 40 10 25 0 40 -8 65 -37 18 -20 39 -51 46 -69 21 -50 17
-151 -7 -203 -16 -38 -18 -50 -8 -73 13 -33 11 -32 51 -12 101 52 209 -63 214
-229 2 -86 2 -86 84 -143 135 -94 330 -163 530 -188 43 -6 44 -5 25 10 -14 11
-16 18 -7 21 6 3 12 20 12 39 0 27 4 34 19 34 10 0 22 -7 25 -16 3 -8 10 -12
16 -9 18 11 35 -7 18 -19 -8 -6 -17 -18 -21 -26 -3 -9 -6 -3 -6 13 -1 16 -5
26 -11 22 -6 -3 -10 1 -10 9 0 35 -16 13 -17 -24 -1 -27 2 -40 11 -40 17 0 14
-94 -6 -180 -16 -70 -15 -192 3 -245 6 -16 13 -48 15 -70 3 -22 10 -45 16 -52
5 -7 7 -17 3 -24 -4 -6 -2 -15 5 -19 8 -5 15 -18 17 -29 3 -24 45 -93 74 -125
11 -11 19 -24 19 -29 0 -6 16 -25 35 -44 19 -19 35 -38 35 -43 0 -6 6 -10 14
-10 8 0 23 -14 33 -30 9 -16 20 -30 23 -30 3 0 27 -20 54 -45 49 -43 49 -45
39 -79 -12 -40 -5 -47 15 -16 16 25 28 25 35 0 3 -11 13 -20 22 -20 25 0 85
-39 85 -56 0 -8 6 -11 16 -7 12 4 15 2 12 -8 -3 -9 -20 -14 -46 -15 -23 0 -44
-3 -48 -6 -3 -4 24 -5 62 -3 60 3 72 0 113 -26 44 -27 45 -29 18 -29 -41 0
-29 -23 19 -35 21 -5 42 -13 45 -18 9 -12 31 1 24 14 -4 5 -1 9 4 9 6 0 11 -8
12 -17 0 -10 3 -13 5 -7 7 16 114 -37 114 -56 0 -12 2 -13 9 -1 7 11 17 10 62
-4 44 -15 70 -17 163 -10 61 4 132 7 159 6 26 -1 47 3 47 9 0 5 17 10 38 10
38 0 39 1 104 98 9 13 14 31 11 38 -3 8 1 14 8 14 9 0 10 3 4 8 -17 12 -18 62
-1 62 10 0 13 -6 10 -15 -4 -8 -1 -15 5 -15 6 0 11 4 11 10 0 5 7 7 15 4 8 -4
15 -1 15 5 0 6 -4 11 -10 11 -21 0 -9 20 13 21 12 1 4 5 -18 9 -26 5 -45 4
-55 -4 -13 -10 -13 -9 -1 7 10 12 11 21 4 25 -5 4 -9 17 -8 30 1 12 -4 22 -11
22 -19 0 -27 -19 -15 -33 5 -7 8 -22 6 -32 -2 -11 -4 -23 -4 -27 -1 -5 -5 -8
-11 -8 -5 0 -10 14 -10 30 0 17 -4 30 -9 30 -5 0 -12 11 -15 25 -4 15 -11 22
-20 19 -10 -4 -13 2 -10 22 1 15 -3 32 -10 39 -10 10 -15 7 -23 -16 -6 -16 -7
-31 -3 -34 5 -3 7 -16 4 -30 -3 -20 -1 -23 13 -19 15 5 15 4 4 -4 -12 -8 -12
-13 -2 -25 7 -9 8 -18 2 -21 -5 -3 -12 0 -14 6 -4 10 -6 10 -6 1 -1 -7 -5 -13
-9 -13 -4 0 -7 21 -6 48 2 27 -4 56 -12 69 -19 30 -18 32 9 26 12 -3 19 -2 15
2 -4 4 -26 9 -49 11 -23 2 -47 8 -54 14 -20 17 -6 48 27 59 26 9 29 8 24 -5
-3 -9 -6 -17 -6 -20 0 -2 -6 -1 -14 2 -17 6 -31 -12 -16 -21 17 -11 101 -8
113 4 15 15 2 24 -33 24 -53 0 -31 46 22 47 4 0 9 -10 11 -22 3 -17 5 -15 6 9
1 25 7 33 31 41 17 7 32 7 35 2 3 -5 14 -1 25 10 11 11 31 22 45 26 14 3 25
12 25 20 0 8 6 15 13 16 6 0 19 2 27 2 8 1 14 7 13 14 -2 7 1 12 6 12 10 0 58
39 106 86 17 18 45 38 61 47 34 18 99 67 132 99 19 20 24 21 33 8 9 -13 10
-12 5 3 -4 12 0 17 12 17 12 0 13 3 5 8 -9 6 -2 20 26 51 44 48 56 77 35 85
-19 7 -5 38 15 31 18 -5 61 49 61 78 0 9 4 17 8 17 10 0 52 94 52 115 0 8 4
15 8 15 4 0 9 12 10 27 1 15 6 29 10 32 4 3 7 24 5 46 -1 22 -5 76 -7 120 -3
44 -12 100 -20 124 -21 57 -20 63 4 24 11 -18 24 -33 30 -33 15 0 12 16 -5 30
-8 7 -15 18 -15 25 0 7 -6 15 -14 18 -13 5 -32 34 -55 84 -6 12 -21 25 -33 28
-13 3 -32 20 -43 36 -11 17 -36 38 -56 47 -41 19 -109 76 -109 92 0 13 -2 13
-50 -6 -41 -17 -50 -28 -27 -37 7 -4 6 -6 -5 -6 -9 -1 -18 3 -20 7 -1 5 -23 0
-48 -12 -31 -14 -40 -21 -27 -24 10 -2 31 1 46 6 25 9 36 5 87 -28 33 -21 67
-47 77 -57 63 -64 97 -108 108 -141 6 -20 16 -40 21 -43 18 -11 32 -276 15
-286 -4 -3 1 -20 13 -39 27 -46 26 -49 -15 -50 -43 -1 -79 -29 -56 -44 12 -7
12 -11 2 -24 -7 -8 -10 -19 -7 -24 3 -6 -1 -26 -9 -46 -9 -20 -13 -42 -9 -48
5 -7 2 -8 -6 -3 -8 5 -11 3 -8 -6 7 -18 -20 -71 -32 -64 -5 3 -11 -3 -14 -12
-4 -10 -20 -33 -36 -52 -17 -18 -30 -37 -30 -41 0 -4 -10 -12 -23 -17 -15 -7
-28 -27 -37 -54 -11 -34 -15 -39 -18 -22 -2 12 2 32 8 44 8 15 9 19 1 15 -6
-4 -11 0 -11 11 0 10 17 29 39 43 22 13 45 34 52 47 7 12 16 20 21 17 5 -3 9
0 7 7 -3 28 1 38 14 33 8 -3 25 4 38 16 20 17 21 19 4 13 -11 -3 -26 -11 -34
-17 -8 -6 -17 -10 -20 -9 -3 1 -16 0 -28 -4 -25 -6 -30 -22 -12 -40 7 -7 1
-12 -20 -16 -22 -5 -29 -11 -25 -22 3 -8 2 -15 -4 -15 -9 0 -42 -32 -120 -117
-21 -24 -44 -43 -50 -43 -6 0 -28 -11 -48 -25 -35 -24 -38 -24 -50 -8 -16 22
-19 1 -4 -28 8 -14 7 -19 -2 -19 -6 0 -29 -12 -49 -26 -36 -25 -55 -32 -91
-33 -9 -1 -19 -10 -23 -20 -4 -12 -12 -18 -21 -14 -7 3 -14 1 -14 -4 0 -5 -26
-17 -57 -28 -32 -10 -62 -22 -68 -26 -5 -4 -25 -10 -42 -14 -18 -3 -35 -10
-38 -15 -3 -5 -17 -2 -32 5 -15 8 -30 10 -33 6 -5 -9 -85 -26 -180 -39 -130
-17 -362 -1 -419 28 -46 24 -86 38 -93 34 -5 -3 -7 0 -6 6 2 7 -6 17 -16 23
-107 65 -202 185 -224 283 -18 83 -26 129 -22 139 2 6 4 37 5 70 1 33 5 96 10
141 6 66 5 83 -8 96 -14 14 -10 22 37 84 29 38 69 86 89 107 20 21 37 43 37
48 0 5 6 9 14 9 8 0 16 3 18 8 2 4 18 19 36 35 19 15 30 27 25 28 -4 0 2 4 13
9 12 5 24 20 26 34 l5 26 -25 -25 c-13 -14 -29 -25 -35 -25 -6 0 -21 -9 -33
-20 -21 -20 -32 -21 -360 -20 -187 0 -348 2 -359 4 -14 2 -19 9 -15 22 6 28 5
77 -3 94 -6 13 43 15 415 14 474 -2 572 2 561 19 -4 7 0 7 9 -1 9 -7 23 -12
30 -10 7 2 21 -4 29 -12 15 -13 11 -16 -35 -31 -48 -16 -49 -17 -18 -18 40 -1
142 27 142 39 0 4 8 6 19 3 10 -2 25 2 34 11 8 8 34 18 56 22 23 4 44 11 47
15 3 5 15 9 26 9 12 0 49 5 84 11 61 11 63 11 98 68 81 131 164 332 206 501
44 173 73 474 54 567 -5 27 -12 32 -57 42 -93 20 -260 49 -360 62 -115 15
-112 12 -152 136 -16 47 -46 108 -71 145 -25 35 -57 82 -72 105 -15 23 -33 43
-40 43 -7 0 -26 15 -43 32 -35 39 -42 113 -11 121 13 4 11 5 -5 6 -25 1 -27
22 -3 33 13 5 12 7 -2 7 -19 1 -20 11 -37 200 -6 75 -14 117 -23 122 -7 5
-168 9 -358 9 -190 0 -361 2 -380 4 -19 2 -62 1 -95 -3z m600 -556 c136 -35
212 -92 294 -217 50 -76 62 -103 72 -161 18 -110 8 -202 -30 -273 -60 -112
-161 -193 -301 -240 -68 -23 -241 -26 -315 -5 -83 23 -166 70 -225 127 -107
102 -143 210 -121 361 10 75 19 98 58 160 89 143 174 212 304 247 72 19 191
20 264 1z m-522 -1045 c37 -41 36 -83 -3 -122 -28 -27 -36 -30 -75 -25 -98 10
-127 135 -41 173 43 19 86 10 119 -26z m502 15 c28 -27 34 -88 12 -115 -24
-31 -62 -50 -100 -50 -72 0 -120 78 -87 140 28 52 133 67 175 25z m254 14 c35
-12 51 -35 51 -73 0 -40 -20 -74 -55 -91 -37 -17 -102 -20 -107 -5 -1 5 -2 48
0 95 l3 85 38 0 c21 0 52 -5 70 -11z m-749 -229 c0 -17 -7 -20 -50 -20 -60 0
-94 -20 -109 -62 -16 -45 -14 -74 9 -119 25 -47 58 -63 118 -55 41 5 43 4 40
-17 -2 -18 -10 -23 -47 -25 -79 -6 -140 39 -161 118 -28 105 45 199 158 200
35 0 42 -3 42 -20z m286 0 c143 -70 64 -322 -95 -307 -55 6 -90 32 -118 87
-28 54 -29 101 -3 158 34 74 132 102 216 62z m332 -2 c-3 -20 -8 -22 -45 -20
-124 9 -187 -118 -102 -209 27 -30 33 -31 85 -27 61 5 84 -13 49 -38 -48 -35
-154 4 -193 71 -18 31 -22 52 -19 91 6 93 77 153 180 154 44 0 48 -2 45 -22z
m277 10 c56 -26 84 -128 55 -203 -44 -113 -169 -151 -242 -73 -77 83 -52 231
47 274 38 17 106 18 140 2z"/>
<path d="M1372 2734 c-50 -35 -15 -134 48 -134 44 0 70 26 70 70 0 65 -66 101
-118 64z"/>
<path d="M1860 2730 c-20 -20 -27 -74 -12 -96 11 -16 48 -34 72 -34 59 0 95
101 48 134 -31 22 -84 20 -108 -4z"/>
<path d="M1663 2509 c-83 -25 -96 -161 -22 -224 89 -74 207 33 170 155 -18 60
-81 90 -148 69z"/>
<path d="M2305 2513 c-66 -14 -95 -54 -95 -132 0 -41 5 -56 28 -81 71 -79 182
-13 182 109 0 64 -58 116 -115 104z"/>
<path d="M970 4280 c-75 -10 -171 -41 -163 -53 3 -6 1 -7 -5 -3 -13 8 -96 -35
-126 -64 -16 -16 -17 -22 -6 -34 10 -14 10 -16 -6 -16 -13 0 -15 -3 -7 -8 7
-5 13 -39 15 -87 2 -60 6 -79 16 -77 8 1 11 -2 6 -9 -4 -8 0 -9 15 -4 11 3 33
9 48 11 63 11 178 45 188 54 9 10 24 228 17 250 -2 5 -18 7 -35 5 -53 -8 -17
4 73 24 86 19 72 25 -30 11z"/>
<path d="M2830 4231 c0 -5 6 -12 13 -14 8 -4 8 -6 1 -6 -8 -1 -9 -13 -4 -38 4
-21 11 -58 14 -83 7 -47 42 -100 68 -100 8 0 18 -4 24 -9 5 -6 28 -13 51 -17
53 -8 59 2 66 127 5 96 5 97 -20 108 -66 30 -213 52 -213 32z"/>
<path d="M827 3932 c-16 -2 -30 -9 -33 -16 -3 -7 -15 -11 -28 -9 -12 3 -42 -1
-67 -8 -42 -13 -43 -13 -14 -17 17 -2 38 -11 48 -20 9 -8 31 -15 48 -15 22 0
28 -4 24 -15 -4 -12 2 -14 37 -8 56 9 236 35 318 46 56 8 49 8 -42 4 -59 -2
-133 -9 -164 -15 -31 -6 -58 -8 -61 -6 -2 3 28 11 68 18 l71 13 -68 16 c-38 9
-78 21 -89 26 -11 5 -33 8 -48 6z"/>
<path d="M3887 3187 c-9 -18 -19 -66 -23 -108 -5 -64 -4 -79 13 -107 11 -17
23 -29 27 -25 4 4 4 -1 0 -12 -5 -11 -9 -14 -12 -7 -2 7 -9 9 -14 6 -7 -4 -8
-2 -4 4 4 7 1 12 -6 12 -12 0 -17 -40 -8 -60 1 -3 1 -21 0 -40 -2 -47 36 -166
55 -174 43 -16 87 42 115 157 17 67 8 209 -18 281 -38 105 -95 138 -125 73z"/>
<path d="M4066 2600 c-56 -50 -79 -156 -65 -305 12 -141 70 -225 155 -225 90
0 155 98 162 241 5 102 -13 175 -58 237 -62 86 -134 105 -194 52z"/>
<path d="M747 2578 c-80 -61 -55 -332 33 -349 54 -11 103 44 122 135 26 132
-76 273 -155 214z"/>
<path d="M938 2184 c-46 -25 -71 -87 -71 -179 0 -132 49 -215 129 -215 116 0
177 176 109 316 -41 85 -103 113 -167 78z"/>
<path d="M4684 1465 c-16 -14 -32 -25 -36 -25 -4 0 -5 -6 -3 -12 7 -20 -34
-63 -46 -51 -7 7 -4 16 12 27 44 30 7 16 -52 -20 -57 -36 -75 -52 -43 -40 9 3
12 2 9 -5 -4 -6 -13 -8 -21 -5 -14 5 -186 -78 -178 -87 5 -5 7 -4 -206 -100
-80 -36 -156 -68 -170 -72 -37 -11 -49 -23 -56 -61 -3 -19 -10 -34 -15 -34 -5
0 -6 -7 -3 -15 6 -14 -7 -20 -31 -15 -5 1 -7 -2 -3 -5 4 -4 1 -23 -7 -42 -21
-50 -19 -54 23 -50 20 3 82 -6 137 -18 84 -19 104 -21 125 -10 46 23 154 77
200 100 25 13 61 26 82 30 20 4 45 15 57 26 11 10 27 19 34 19 20 0 76 25 112
50 42 28 26 25 -50 -10 -36 -16 -70 -30 -75 -30 -5 0 -29 -10 -53 -23 -99 -53
-202 -73 -218 -44 -5 9 -16 14 -24 11 -8 -4 -78 0 -155 6 -116 11 -138 15
-129 26 6 8 15 11 20 8 5 -3 9 -1 9 5 0 6 7 7 17 4 9 -4 14 -2 10 4 -6 10 161
49 342 79 l105 18 87 90 c99 103 116 124 174 211 67 100 68 102 19 60z"/>
</g>
</svg>
